<?xml version="1.0" encoding="UTF-8" standalone="no"?>
<!DOCTYPE svg PUBLIC "-//W3C//DTD SVG 1.1//EN" "http://www.w3.org/Graphics/SVG/1.1/DTD/svg11.dtd">
<svg xmlns="http://www.w3.org/2000/svg" xmlns:xl="http://www.w3.org/1999/xlink" xmlns:dc="http://purl.org/dc/elements/1.1/" version="1.1" viewBox="485 139 620 326" width="620" height="326">
  <defs>
    <filter id="Shadow" filterUnits="userSpaceOnUse" x="423" y="106.4">
      <feGaussianBlur in="SourceAlpha" result="blur" stdDeviation="1.308"/>
      <feOffset in="blur" result="offset" dx="0" dy="2"/>
      <feFlood flood-color="black" flood-opacity=".5" result="flood"/>
      <feComposite in="flood" in2="offset" operator="in"/>
    </filter>
    <linearGradient x1="0" x2="1" id="Gradient" gradientUnits="userSpaceOnUse">
      <stop offset="0" stop-color="#9cc523"/>
      <stop offset="1" stop-color="#83a771"/>
    </linearGradient>
    <linearGradient id="Obj_Gradient" xl:href="#Gradient" gradientTransform="translate(1036.2649 290.71346) rotate(66) scale(114.25121)"/>
    <linearGradient id="Obj_Gradient_2" xl:href="#Gradient" gradientTransform="translate(714.0245 135.63652) rotate(66) scale(39.217166)"/>
    <linearGradient id="Obj_Gradient_3" xl:href="#Gradient" gradientTransform="translate(661.0245 135.63652) rotate(66) scale(39.217166)"/>
    <linearGradient id="Obj_Gradient_4" xl:href="#Gradient" gradientTransform="translate(608.0245 135.63652) rotate(66) scale(39.217166)"/>
    <linearGradient id="Obj_Gradient_5" xl:href="#Gradient" gradientTransform="translate(1036.2649 290.71346) rotate(66) scale(114.25121)"/>
    <marker orient="auto" overflow="visible" markerUnits="strokeWidth" id="FilledArrow_Marker" stroke-linejoin="miter" stroke-miterlimit="10" viewBox="-9 -4 10 8" markerWidth="10" markerHeight="8" color="black">
      <g>
        <path d="M -8 0 L 0 3 L 0 -3 Z" fill="currentColor" stroke="currentColor" stroke-width="1"/>
      </g>
    </marker>
    <linearGradient id="Obj_Gradient_6" xl:href="#Gradient" gradientTransform="translate(608.0245 135.63652) rotate(66) scale(39.217166)"/>
    <marker orient="auto" overflow="visible" markerUnits="strokeWidth" id="FilledArrow_Marker_2" stroke-linejoin="miter" stroke-miterlimit="10" viewBox="-9 -4 10 8" markerWidth="10" markerHeight="8" color="#7f8080">
      <g>
        <path d="M -8 0 L 0 3 L 0 -3 Z" fill="currentColor" stroke="currentColor" stroke-width="1"/>
      </g>
    </marker>
    <linearGradient id="Obj_Gradient_7" xl:href="#Gradient" gradientTransform="translate(661.0245 135.63652) rotate(66) scale(39.217166)"/>
    <linearGradient id="Obj_Gradient_8" xl:href="#Gradient" gradientTransform="translate(714.0245 135.63652) rotate(66) scale(39.217166)"/>
    <filter id="Shadow_2" filterUnits="userSpaceOnUse" x="423" y="106.4">
      <feGaussianBlur in="SourceAlpha" result="blur" stdDeviation="1.308"/>
      <feOffset in="blur" result="offset" dx="0" dy="2"/>
      <feFlood flood-color="black" flood-opacity=".5" result="flood"/>
      <feComposite in="flood" in2="offset" operator="in" result="color"/>
      <feMerge>
        <feMergeNode in="color"/>
        <feMergeNode in="SourceGraphic"/>
      </feMerge>
    </filter>
    <linearGradient x1="0" x2="1" id="Gradient_2" gradientUnits="userSpaceOnUse">
      <stop offset="0" stop-color="#ffec1b"/>
      <stop offset="1" stop-color="#ffbc1c"/>
    </linearGradient>
    <linearGradient id="Obj_Gradient_9" xl:href="#Gradient_2" gradientTransform="translate(630.5844 316.98652) rotate(66) scale(181.52086)"/>
    <linearGradient x1="0" x2="1" id="Gradient_3" gradientUnits="userSpaceOnUse">
      <stop offset="0" stop-color="#ffa668"/>
      <stop offset="1" stop-color="#f6786a"/>
    </linearGradient>
    <linearGradient id="Obj_Gradient_10" xl:href="#Gradient_3" gradientTransform="translate(630.5844 250.98652) rotate(66) scale(181.52086)"/>
    <linearGradient x1="0" x2="1" id="Gradient_4" gradientUnits="userSpaceOnUse">
      <stop offset="0" stop-color="#d6d7ff"/>
      <stop offset="1" stop-color="#ab7caa"/>
    </linearGradient>
    <linearGradient id="Obj_Gradient_11" xl:href="#Gradient_4" gradientTransform="translate(536.2785 225.9742) rotate(66) scale(89.59838)"/>
    <linearGradient id="Obj_Gradient_12" xl:href="#Gradient_4" gradientTransform="translate(649.2785 226.9742) rotate(66) scale(89.59838)"/>
    <linearGradient id="Obj_Gradient_13" xl:href="#Gradient_4" gradientTransform="translate(762.2785 225.9742) rotate(66) scale(89.59838)"/>
  </defs>
  <g id="memcache,_redis_and_rest" fill-opacity="1" stroke-opacity="1" fill="none" stroke="none" stroke-dasharray="none">
    <title>memcache, redis and rest</title>
    <rect fill="white" x="485" y="139" width="620" height="326"/>
    <g id="memcache,_redis_and_rest_Layer_1">
      <title>Layer 1</title>
      <g id="Graphic_2_shadow" filter="url(#Shadow)">
        <path d="M 1019 378.5003 L 1019 307.3003 C 1019 302.3875 1037.144 298.4003 1059.5 298.4003 C 1081.856 298.4003 1100 302.3875 1100 307.3003 L 1100 378.5003 C 1100 383.4131 1081.856 387.4003 1059.5 387.4003 C 1037.144 387.4003 1019 383.4131 1019 378.5003" fill="url(#Obj_Gradient)"/>
        <path d="M 1019 378.5003 L 1019 307.3003 C 1019 302.3875 1037.144 298.4003 1059.5 298.4003 C 1081.856 298.4003 1100 302.3875 1100 307.3003 L 1100 378.5003 C 1100 383.4131 1081.856 387.4003 1059.5 387.4003 C 1037.144 387.4003 1019 383.4131 1019 378.5003 M 1019 307.3003 C 1019 312.2131 1037.144 316.2003 1059.5 316.2003 C 1081.856 316.2003 1100 312.2131 1100 307.3003" stroke="white" stroke-linecap="round" stroke-linejoin="round" stroke-width="3"/>
      </g>
      <g id="Graphic_34_shadow" filter="url(#Shadow)">
        <path d="M 704 166.94577 C 704 166.94577 704.6691 165.42356 705.0036 164.59565 C 705.3381 163.76777 708.65455 162.36938 710.2575 162.1913 C 710.8809 162.0132 713.8194 160.76647 713.8194 160.76647 C 713.8194 160.76647 714.71 160.23218 715.0662 160.14314 C 715.4224 160.05413 716.49096 160.05413 716.49096 160.05413 L 717.55954 159.5198 L 717.6486 157.11546 L 717.0252 155.3345 C 717.0252 155.3345 716.2237 154.80023 716.1348 154.62207 C 716.0457 154.44399 715.6005 152.57393 715.6005 152.57393 C 715.6005 152.57393 715.2442 150.52577 715.4224 150.25863 C 715.6005 149.99148 715.9566 149.99148 715.9566 149.99148 C 715.9566 149.99148 715.4224 146.42945 715.5113 145.89518 C 715.5113 145.0047 716.7581 142.95657 716.7581 142.95657 L 717.8267 141.70987 C 717.8267 141.70987 716.66905 142.3332 716.66905 142.15513 C 717.0252 141.35368 718.53905 140.81936 718.7172 140.73032 C 718.8953 140.64128 719.42965 140.64128 719.7858 140.73032 C 720.142 140.81936 720.6763 140.19603 720.6763 140.19603 C 720.6763 140.19603 720.8544 140.37414 721.1215 140.46318 C 721.923 140.01792 723.2588 140.10696 723.4368 140.10696 C 724.2383 140.10696 727.6221 141.08654 727.1769 141.26462 C 726.01926 141.4427 726.5535 141.62083 726.5535 141.62083 L 729.31405 142.3332 C 729.31405 142.3332 730.6498 143.04566 730.2046 143.13467 C 729.40315 143.0456 729.6703 143.31275 729.6703 143.31275 C 729.6703 143.31275 730.2936 143.49086 730.3827 143.93611 C 729.7593 144.02515 729.8484 144.11422 729.8484 144.11422 C 729.8484 144.11422 730.8279 145.89518 730.7389 146.34046 C 730.4717 146.25142 730.1155 146.34046 730.1155 146.34046 C 730.1155 146.34046 730.2936 147.05286 730.2936 147.49809 C 730.2936 147.94334 730.1156 148.65572 730.1155 149.01193 C 730.11555 149.36814 730.1155 150.08052 730.1155 150.08052 C 730.1155 150.08052 730.2937 149.99156 730.5608 150.16959 C 730.8279 150.3477 730.6498 151.9506 730.6498 152.1287 C 730.5608 152.75203 730.2936 153.28634 730.2936 153.28634 L 729.8484 154.62207 C 729.8484 154.62207 729.6703 155.3345 729.40315 155.3345 C 729.13596 155.3345 728.8688 155.15638 728.8688 155.15638 C 728.8688 155.15638 728.4236 157.02642 728.1564 157.47167 C 727.8892 157.91693 727.7112 158.27311 727.7112 158.27311 L 727.7112 159.96506 C 727.7112 159.96506 728.869 160.32135 729.225 160.49935 C 729.5812 160.67743 729.8484 161.12271 729.8484 161.12271 C 729.8484 161.12271 734.0426 162.01118 735.2137 162.513 C 736.3846 163.0148 737.6902 163.99672 738.2245 164.3529 C 738.7588 164.70912 740 167 740 167 Z" fill="url(#Obj_Gradient_2)"/>
      </g>
      <g id="Graphic_36_shadow" filter="url(#Shadow)">
        <path d="M 651 166.94577 C 651 166.94577 651.66906 165.42356 652.0036 164.59565 C 652.3381 163.76777 655.65455 162.36938 657.2575 162.1913 C 657.88086 162.0132 660.8194 160.76647 660.8194 160.76647 C 660.8194 160.76647 661.71 160.23218 662.0662 160.14314 C 662.4224 160.05413 663.49096 160.05413 663.49096 160.05413 L 664.55954 159.5198 L 664.6486 157.11546 L 664.0252 155.3345 C 664.0252 155.3345 663.2237 154.80023 663.1348 154.62207 C 663.0457 154.44399 662.60046 152.57393 662.60046 152.57393 C 662.60046 152.57393 662.24424 150.52577 662.4224 150.25863 C 662.60046 149.99148 662.9566 149.99148 662.9566 149.99148 C 662.9566 149.99148 662.4224 146.42945 662.5113 145.89518 C 662.5113 145.0047 663.7581 142.95657 663.7581 142.95657 L 664.8267 141.70987 C 664.8267 141.70987 663.66905 142.3332 663.66905 142.15513 C 664.0252 141.35368 665.53905 140.81936 665.71716 140.73032 C 665.8953 140.64128 666.42965 140.64128 666.78576 140.73032 C 667.142 140.81936 667.6763 140.19603 667.6763 140.19603 C 667.6763 140.19603 667.8544 140.37414 668.1215 140.46318 C 668.923 140.01792 670.25876 140.10696 670.4368 140.10696 C 671.2383 140.10696 674.6221 141.08654 674.1769 141.26462 C 673.01926 141.4427 673.5535 141.62083 673.5535 141.62083 L 676.31405 142.3332 C 676.31405 142.3332 677.6498 143.04566 677.2046 143.13467 C 676.40315 143.0456 676.6703 143.31275 676.6703 143.31275 C 676.6703 143.31275 677.2936 143.49086 677.3827 143.93611 C 676.7593 144.02515 676.8484 144.11422 676.8484 144.11422 C 676.8484 144.11422 677.8279 145.89518 677.7389 146.34046 C 677.4717 146.25142 677.1155 146.34046 677.1155 146.34046 C 677.1155 146.34046 677.2936 147.05286 677.2936 147.49809 C 677.2936 147.94334 677.1156 148.65572 677.1155 149.01193 C 677.11555 149.36814 677.1155 150.08052 677.1155 150.08052 C 677.1155 150.08052 677.2937 149.99156 677.5608 150.16959 C 677.8279 150.3477 677.6498 151.9506 677.6498 152.1287 C 677.5608 152.75203 677.2936 153.28634 677.2936 153.28634 L 676.8484 154.62207 C 676.8484 154.62207 676.6703 155.3345 676.40315 155.3345 C 676.13596 155.3345 675.8688 155.15638 675.8688 155.15638 C 675.8688 155.15638 675.4236 157.02642 675.1564 157.47167 C 674.8892 157.91693 674.7112 158.27311 674.7112 158.27311 L 674.7112 159.96506 C 674.7112 159.96506 675.869 160.32135 676.225 160.49935 C 676.5812 160.67743 676.8484 161.12271 676.8484 161.12271 C 676.8484 161.12271 681.0426 162.01118 682.2137 162.513 C 683.3846 163.0148 684.6902 163.99672 685.2245 164.3529 C 685.7588 164.70912 687 167 687 167 Z" fill="url(#Obj_Gradient_3)"/>
      </g>
      <g id="Graphic_35_shadow" filter="url(#Shadow)">
        <path d="M 598 166.94577 C 598 166.94577 598.66906 165.42356 599.0036 164.59565 C 599.3381 163.76777 602.65455 162.36938 604.2575 162.1913 C 604.88086 162.0132 607.8194 160.76647 607.8194 160.76647 C 607.8194 160.76647 608.71 160.23218 609.0662 160.14314 C 609.4224 160.05413 610.49096 160.05413 610.49096 160.05413 L 611.55954 159.5198 L 611.6486 157.11546 L 611.0252 155.3345 C 611.0252 155.3345 610.2237 154.80023 610.1348 154.62207 C 610.0457 154.44399 609.60046 152.57393 609.60046 152.57393 C 609.60046 152.57393 609.24424 150.52577 609.4224 150.25863 C 609.60046 149.99148 609.9566 149.99148 609.9566 149.99148 C 609.9566 149.99148 609.4224 146.42945 609.5113 145.89518 C 609.5113 145.0047 610.7581 142.95657 610.7581 142.95657 L 611.8267 141.70987 C 611.8267 141.70987 610.66905 142.3332 610.66905 142.15513 C 611.0252 141.35368 612.53905 140.81936 612.71716 140.73032 C 612.8953 140.64128 613.42965 140.64128 613.78576 140.73032 C 614.142 140.81936 614.6763 140.19603 614.6763 140.19603 C 614.6763 140.19603 614.8544 140.37414 615.1215 140.46318 C 615.923 140.01792 617.25876 140.10696 617.4368 140.10696 C 618.2383 140.10696 621.6221 141.08654 621.1769 141.26462 C 620.01926 141.4427 620.5535 141.62083 620.5535 141.62083 L 623.31405 142.3332 C 623.31405 142.3332 624.6498 143.04566 624.2046 143.13467 C 623.40315 143.0456 623.6703 143.31275 623.6703 143.31275 C 623.6703 143.31275 624.2936 143.49086 624.3827 143.93611 C 623.7593 144.02515 623.84836 144.11422 623.84836 144.11422 C 623.84836 144.11422 624.8279 145.89518 624.7389 146.34046 C 624.4717 146.25142 624.1155 146.34046 624.1155 146.34046 C 624.1155 146.34046 624.2936 147.05286 624.2936 147.49809 C 624.2936 147.94334 624.1156 148.65572 624.1155 149.01193 C 624.11555 149.36814 624.1155 150.08052 624.1155 150.08052 C 624.1155 150.08052 624.2937 149.99156 624.5608 150.16959 C 624.8279 150.3477 624.6498 151.9506 624.6498 152.1287 C 624.5608 152.75203 624.2936 153.28634 624.2936 153.28634 L 623.84836 154.62207 C 623.84836 154.62207 623.6703 155.3345 623.40315 155.3345 C 623.13596 155.3345 622.8688 155.15638 622.8688 155.15638 C 622.8688 155.15638 622.4236 157.02642 622.1564 157.47167 C 621.88924 157.91693 621.7112 158.27311 621.7112 158.27311 L 621.7112 159.96506 C 621.7112 159.96506 622.869 160.32135 623.225 160.49935 C 623.58124 160.67743 623.84836 161.12271 623.84836 161.12271 C 623.84836 161.12271 628.0426 162.01118 629.2137 162.513 C 630.3846 163.0148 631.6902 163.99672 632.2245 164.3529 C 632.7588 164.70912 634 167 634 167 Z" fill="url(#Obj_Gradient_4)"/>
      </g>
      <g id="Group_51">
        <g id="Graphic_2">
          <path d="M 1019 378.5003 L 1019 307.3003 C 1019 302.3875 1037.144 298.4003 1059.5 298.4003 C 1081.856 298.4003 1100 302.3875 1100 307.3003 L 1100 378.5003 C 1100 383.4131 1081.856 387.4003 1059.5 387.4003 C 1037.144 387.4003 1019 383.4131 1019 378.5003" fill="url(#Obj_Gradient_5)"/>
          <path d="M 1019 378.5003 L 1019 307.3003 C 1019 302.3875 1037.144 298.4003 1059.5 298.4003 C 1081.856 298.4003 1100 302.3875 1100 307.3003 L 1100 378.5003 C 1100 383.4131 1081.856 387.4003 1059.5 387.4003 C 1037.144 387.4003 1019 383.4131 1019 378.5003 M 1019 307.3003 C 1019 312.2131 1037.144 316.2003 1059.5 316.2003 C 1081.856 316.2003 1100 312.2131 1100 307.3003" stroke="white" stroke-linecap="round" stroke-linejoin="round" stroke-width="3"/>
          <text transform="translate(1024 340.3503)" fill="black">
            <tspan font-family="Helvetica" font-size="12" fill="black" x="2.8164062" y="11">PostgreSQL</tspan>
          </text>
        </g>
        <g id="Line_17">
          <line x1="893.9" y1="342.9003" x2="983" y2="342.9003" marker-start="url(#FilledArrow_Marker)" stroke="black" stroke-linecap="round" stroke-linejoin="round" stroke-dasharray="8.0,4.0,1.0,4.0" stroke-width="1"/>
        </g>
        <g id="Graphic_22">
          <text transform="translate(897.38 324.4523)" fill="black">
            <tspan font-family="Helvetica Neue" font-size="16" fill="black" x="8.736" y="15">realtime</tspan>
            <tspan font-family="Helvetica Neue" font-size="16" fill="black" x="8739676e-19" y="33.448">replication</tspan>
          </text>
        </g>
      </g>
      <g id="Group_50">
        <g id="Group_47">
          <g id="Graphic_35">
            <path d="M 598 166.94577 C 598 166.94577 598.66906 165.42356 599.0036 164.59565 C 599.3381 163.76777 602.65455 162.36938 604.2575 162.1913 C 604.88086 162.0132 607.8194 160.76647 607.8194 160.76647 C 607.8194 160.76647 608.71 160.23218 609.0662 160.14314 C 609.4224 160.05413 610.49096 160.05413 610.49096 160.05413 L 611.55954 159.5198 L 611.6486 157.11546 L 611.0252 155.3345 C 611.0252 155.3345 610.2237 154.80023 610.1348 154.62207 C 610.0457 154.44399 609.60046 152.57393 609.60046 152.57393 C 609.60046 152.57393 609.24424 150.52577 609.4224 150.25863 C 609.60046 149.99148 609.9566 149.99148 609.9566 149.99148 C 609.9566 149.99148 609.4224 146.42945 609.5113 145.89518 C 609.5113 145.0047 610.7581 142.95657 610.7581 142.95657 L 611.8267 141.70987 C 611.8267 141.70987 610.66905 142.3332 610.66905 142.15513 C 611.0252 141.35368 612.53905 140.81936 612.71716 140.73032 C 612.8953 140.64128 613.42965 140.64128 613.78576 140.73032 C 614.142 140.81936 614.6763 140.19603 614.6763 140.19603 C 614.6763 140.19603 614.8544 140.37414 615.1215 140.46318 C 615.923 140.01792 617.25876 140.10696 617.4368 140.10696 C 618.2383 140.10696 621.6221 141.08654 621.1769 141.26462 C 620.01926 141.4427 620.5535 141.62083 620.5535 141.62083 L 623.31405 142.3332 C 623.31405 142.3332 624.6498 143.04566 624.2046 143.13467 C 623.40315 143.0456 623.6703 143.31275 623.6703 143.31275 C 623.6703 143.31275 624.2936 143.49086 624.3827 143.93611 C 623.7593 144.02515 623.84836 144.11422 623.84836 144.11422 C 623.84836 144.11422 624.8279 145.89518 624.7389 146.34046 C 624.4717 146.25142 624.1155 146.34046 624.1155 146.34046 C 624.1155 146.34046 624.2936 147.05286 624.2936 147.49809 C 624.2936 147.94334 624.1156 148.65572 624.1155 149.01193 C 624.11555 149.36814 624.1155 150.08052 624.1155 150.08052 C 624.1155 150.08052 624.2937 149.99156 624.5608 150.16959 C 624.8279 150.3477 624.6498 151.9506 624.6498 152.1287 C 624.5608 152.75203 624.2936 153.28634 624.2936 153.28634 L 623.84836 154.62207 C 623.84836 154.62207 623.6703 155.3345 623.40315 155.3345 C 623.13596 155.3345 622.8688 155.15638 622.8688 155.15638 C 622.8688 155.15638 622.4236 157.02642 622.1564 157.47167 C 621.88924 157.91693 621.7112 158.27311 621.7112 158.27311 L 621.7112 159.96506 C 621.7112 159.96506 622.869 160.32135 623.225 160.49935 C 623.58124 160.67743 623.84836 161.12271 623.84836 161.12271 C 623.84836 161.12271 628.0426 162.01118 629.2137 162.513 C 630.3846 163.0148 631.6902 163.99672 632.2245 164.3529 C 632.7588 164.70912 634 167 634 167 Z" fill="url(#Obj_Gradient_6)"/>
          </g>
          <g id="Line_40">
            <line x1="616" y1="200.1" x2="616" y2="183.0997" marker-start="url(#FilledArrow_Marker_2)" stroke="#7f8080" stroke-linecap="round" stroke-linejoin="round" stroke-width="1"/>
          </g>
        </g>
        <g id="Group_48">
          <g id="Graphic_36">
            <path d="M 651 166.94577 C 651 166.94577 651.66906 165.42356 652.0036 164.59565 C 652.3381 163.76777 655.65455 162.36938 657.2575 162.1913 C 657.88086 162.0132 660.8194 160.76647 660.8194 160.76647 C 660.8194 160.76647 661.71 160.23218 662.0662 160.14314 C 662.4224 160.05413 663.49096 160.05413 663.49096 160.05413 L 664.55954 159.5198 L 664.6486 157.11546 L 664.0252 155.3345 C 664.0252 155.3345 663.2237 154.80023 663.1348 154.62207 C 663.0457 154.44399 662.60046 152.57393 662.60046 152.57393 C 662.60046 152.57393 662.24424 150.52577 662.4224 150.25863 C 662.60046 149.99148 662.9566 149.99148 662.9566 149.99148 C 662.9566 149.99148 662.4224 146.42945 662.5113 145.89518 C 662.5113 145.0047 663.7581 142.95657 663.7581 142.95657 L 664.8267 141.70987 C 664.8267 141.70987 663.66905 142.3332 663.66905 142.15513 C 664.0252 141.35368 665.53905 140.81936 665.71716 140.73032 C 665.8953 140.64128 666.42965 140.64128 666.78576 140.73032 C 667.142 140.81936 667.6763 140.19603 667.6763 140.19603 C 667.6763 140.19603 667.8544 140.37414 668.1215 140.46318 C 668.923 140.01792 670.25876 140.10696 670.4368 140.10696 C 671.2383 140.10696 674.6221 141.08654 674.1769 141.26462 C 673.01926 141.4427 673.5535 141.62083 673.5535 141.62083 L 676.31405 142.3332 C 676.31405 142.3332 677.6498 143.04566 677.2046 143.13467 C 676.40315 143.0456 676.6703 143.31275 676.6703 143.31275 C 676.6703 143.31275 677.2936 143.49086 677.3827 143.93611 C 676.7593 144.02515 676.8484 144.11422 676.8484 144.11422 C 676.8484 144.11422 677.8279 145.89518 677.7389 146.34046 C 677.4717 146.25142 677.1155 146.34046 677.1155 146.34046 C 677.1155 146.34046 677.2936 147.05286 677.2936 147.49809 C 677.2936 147.94334 677.1156 148.65572 677.1155 149.01193 C 677.11555 149.36814 677.1155 150.08052 677.1155 150.08052 C 677.1155 150.08052 677.2937 149.99156 677.5608 150.16959 C 677.8279 150.3477 677.6498 151.9506 677.6498 152.1287 C 677.5608 152.75203 677.2936 153.28634 677.2936 153.28634 L 676.8484 154.62207 C 676.8484 154.62207 676.6703 155.3345 676.40315 155.3345 C 676.13596 155.3345 675.8688 155.15638 675.8688 155.15638 C 675.8688 155.15638 675.4236 157.02642 675.1564 157.47167 C 674.8892 157.91693 674.7112 158.27311 674.7112 158.27311 L 674.7112 159.96506 C 674.7112 159.96506 675.869 160.32135 676.225 160.49935 C 676.5812 160.67743 676.8484 161.12271 676.8484 161.12271 C 676.8484 161.12271 681.0426 162.01118 682.2137 162.513 C 683.3846 163.0148 684.6902 163.99672 685.2245 164.3529 C 685.7588 164.70912 687 167 687 167 Z" fill="url(#Obj_Gradient_7)"/>
          </g>
          <g id="Line_41">
            <line x1="668" y1="200.1" x2="668" y2="183.0997" marker-start="url(#FilledArrow_Marker_2)" stroke="#7f8080" stroke-linecap="round" stroke-linejoin="round" stroke-width="1"/>
          </g>
        </g>
        <g id="Group_49">
          <g id="Graphic_34">
            <path d="M 704 166.94577 C 704 166.94577 704.6691 165.42356 705.0036 164.59565 C 705.3381 163.76777 708.65455 162.36938 710.2575 162.1913 C 710.8809 162.0132 713.8194 160.76647 713.8194 160.76647 C 713.8194 160.76647 714.71 160.23218 715.0662 160.14314 C 715.4224 160.05413 716.49096 160.05413 716.49096 160.05413 L 717.55954 159.5198 L 717.6486 157.11546 L 717.0252 155.3345 C 717.0252 155.3345 716.2237 154.80023 716.1348 154.62207 C 716.0457 154.44399 715.6005 152.57393 715.6005 152.57393 C 715.6005 152.57393 715.2442 150.52577 715.4224 150.25863 C 715.6005 149.99148 715.9566 149.99148 715.9566 149.99148 C 715.9566 149.99148 715.4224 146.42945 715.5113 145.89518 C 715.5113 145.0047 716.7581 142.95657 716.7581 142.95657 L 717.8267 141.70987 C 717.8267 141.70987 716.66905 142.3332 716.66905 142.15513 C 717.0252 141.35368 718.53905 140.81936 718.7172 140.73032 C 718.8953 140.64128 719.42965 140.64128 719.7858 140.73032 C 720.142 140.81936 720.6763 140.19603 720.6763 140.19603 C 720.6763 140.19603 720.8544 140.37414 721.1215 140.46318 C 721.923 140.01792 723.2588 140.10696 723.4368 140.10696 C 724.2383 140.10696 727.6221 141.08654 727.1769 141.26462 C 726.01926 141.4427 726.5535 141.62083 726.5535 141.62083 L 729.31405 142.3332 C 729.31405 142.3332 730.6498 143.04566 730.2046 143.13467 C 729.40315 143.0456 729.6703 143.31275 729.6703 143.31275 C 729.6703 143.31275 730.2936 143.49086 730.3827 143.93611 C 729.7593 144.02515 729.8484 144.11422 729.8484 144.11422 C 729.8484 144.11422 730.8279 145.89518 730.7389 146.34046 C 730.4717 146.25142 730.1155 146.34046 730.1155 146.34046 C 730.1155 146.34046 730.2936 147.05286 730.2936 147.49809 C 730.2936 147.94334 730.1156 148.65572 730.1155 149.01193 C 730.11555 149.36814 730.1155 150.08052 730.1155 150.08052 C 730.1155 150.08052 730.2937 149.99156 730.5608 150.16959 C 730.8279 150.3477 730.6498 151.9506 730.6498 152.1287 C 730.5608 152.75203 730.2936 153.28634 730.2936 153.28634 L 729.8484 154.62207 C 729.8484 154.62207 729.6703 155.3345 729.40315 155.3345 C 729.13596 155.3345 728.8688 155.15638 728.8688 155.15638 C 728.8688 155.15638 728.4236 157.02642 728.1564 157.47167 C 727.8892 157.91693 727.7112 158.27311 727.7112 158.27311 L 727.7112 159.96506 C 727.7112 159.96506 728.869 160.32135 729.225 160.49935 C 729.5812 160.67743 729.8484 161.12271 729.8484 161.12271 C 729.8484 161.12271 734.0426 162.01118 735.2137 162.513 C 736.3846 163.0148 737.6902 163.99672 738.2245 164.3529 C 738.7588 164.70912 740 167 740 167 Z" fill="url(#Obj_Gradient_8)"/>
          </g>
          <g id="Line_42">
            <line x1="720" y1="200.1" x2="720" y2="183.0997" marker-start="url(#FilledArrow_Marker_2)" stroke="#7f8080" stroke-linecap="round" stroke-linejoin="round" stroke-width="1"/>
          </g>
        </g>
      </g>
      <g id="Group_45">
        <g id="Graphic_28" filter="url(#Shadow_2)">
          <path d="M 495 227.9003 L 843 227.9003 C 845.7614 227.9003 848 230.13888 848 232.9003 L 848 452.9003 C 848 455.6617 845.7614 457.9003 843 457.9003 L 495 457.9003 C 492.2386 457.9003 490 455.6617 490 452.9003 L 490 232.9003 C 490 230.13888 492.2386 227.9003 495 227.9003 Z" fill="white"/>
          <path d="M 495 227.9003 L 843 227.9003 C 845.7614 227.9003 848 230.13888 848 232.9003 L 848 452.9003 C 848 455.6617 845.7614 457.9003 843 457.9003 L 495 457.9003 C 492.2386 457.9003 490 455.6617 490 452.9003 L 490 232.9003 C 490 230.13888 492.2386 227.9003 495 227.9003 Z" stroke="#9cc523" stroke-linecap="round" stroke-linejoin="round" stroke-width="3"/>
          <text transform="translate(495 434.4523)" fill="black">
            <tspan font-family="Helvetica Neue" font-size="16" fill="black" x="0" y="15">pgec</tspan>
          </text>
        </g>
        <g id="Graphic_23" filter="url(#Shadow_2)">
          <path d="M 514 372.9003 L 821 372.9003 C 825.9706 372.9003 830 376.92974 830 381.9003 L 830 417.9003 C 830 422.87086 825.9706 426.9003 821 426.9003 L 514 426.9003 C 509.02944 426.9003 505 422.87086 505 417.9003 L 505 381.9003 C 505 376.92974 509.02944 372.9003 514 372.9003 Z" fill="url(#Obj_Gradient_9)"/>
          <path d="M 514 372.9003 L 821 372.9003 C 825.9706 372.9003 830 376.92974 830 381.9003 L 830 417.9003 C 830 422.87086 825.9706 426.9003 821 426.9003 L 514 426.9003 C 509.02944 426.9003 505 422.87086 505 417.9003 L 505 381.9003 C 505 376.92974 509.02944 372.9003 514 372.9003 Z" stroke="white" stroke-linecap="round" stroke-linejoin="round" stroke-width="3"/>
          <text transform="translate(510 392.9003)" fill="black">
            <tspan font-family="Helvetica" font-size="12" fill="black" x="107.80957" y="11">PostgreSQL Client</tspan>
          </text>
        </g>
        <g id="Graphic_3" filter="url(#Shadow_2)">
          <path d="M 514 306.9003 L 821 306.9003 C 825.9706 306.9003 830 310.92974 830 315.9003 L 830 351.9003 C 830 356.87086 825.9706 360.9003 821 360.9003 L 514 360.9003 C 509.02944 360.9003 505 356.87086 505 351.9003 L 505 315.9003 C 505 310.92974 509.02944 306.9003 514 306.9003 Z" fill="url(#Obj_Gradient_10)"/>
          <path d="M 514 306.9003 L 821 306.9003 C 825.9706 306.9003 830 310.92974 830 315.9003 L 830 351.9003 C 830 356.87086 825.9706 360.9003 821 360.9003 L 514 360.9003 C 509.02944 360.9003 505 356.87086 505 351.9003 L 505 315.9003 C 505 310.92974 509.02944 306.9003 514 306.9003 Z" stroke="white" stroke-linecap="round" stroke-linejoin="round" stroke-width="3"/>
          <text transform="translate(510 326.9003)" fill="black">
            <tspan font-family="Helvetica" font-size="12" fill="black" x="116.82129" y="11">Memory Cache</tspan>
          </text>
        </g>
        <g id="Group_44">
          <g id="Graphic_24" filter="url(#Shadow_2)">
            <path d="M 514 239.9003 L 595 239.9003 C 599.97056 239.9003 604 243.92974 604 248.9003 L 604 284.9003 C 604 289.87086 599.97056 293.9003 595 293.9003 L 514 293.9003 C 509.02944 293.9003 505 289.87086 505 284.9003 L 505 248.9003 C 505 243.92974 509.02944 239.9003 514 239.9003 Z" fill="url(#Obj_Gradient_11)"/>
            <path d="M 514 239.9003 L 595 239.9003 C 599.97056 239.9003 604 243.92974 604 248.9003 L 604 284.9003 C 604 289.87086 599.97056 293.9003 595 293.9003 L 514 293.9003 C 509.02944 293.9003 505 289.87086 505 284.9003 L 505 248.9003 C 505 243.92974 509.02944 239.9003 514 239.9003 Z" stroke="white" stroke-linecap="round" stroke-linejoin="round" stroke-width="3"/>
            <text transform="translate(510 252.9003)" fill="black">
              <tspan font-family="Helvetica" font-size="12" fill="black" x="11.819336" y="11">memcached</tspan>
              <tspan font-family="Helvetica" font-size="12" fill="black" x="34.8291" y="25">API</tspan>
            </text>
          </g>
          <g id="Graphic_26" filter="url(#Shadow_2)">
            <path d="M 627 240.9003 L 708 240.9003 C 712.9706 240.9003 717 244.92974 717 249.9003 L 717 285.9003 C 717 290.87086 712.9706 294.9003 708 294.9003 L 627 294.9003 C 622.02944 294.9003 618 290.87086 618 285.9003 L 618 249.9003 C 618 244.92974 622.02944 240.9003 627 240.9003 Z" fill="url(#Obj_Gradient_12)"/>
            <path d="M 627 240.9003 L 708 240.9003 C 712.9706 240.9003 717 244.92974 717 249.9003 L 717 285.9003 C 717 290.87086 712.9706 294.9003 708 294.9003 L 627 294.9003 C 622.02944 294.9003 618 290.87086 618 285.9003 L 618 249.9003 C 618 244.92974 622.02944 240.9003 627 240.9003 Z" stroke="white" stroke-linecap="round" stroke-linejoin="round" stroke-width="3"/>
            <text transform="translate(623 253.9003)" fill="black">
              <tspan font-family="Helvetica" font-size="12" fill="black" x="28.498047" y="11">REST</tspan>
              <tspan font-family="Helvetica" font-size="12" fill="black" x="34.8291" y="25">API</tspan>
            </text>
          </g>
          <g id="Graphic_43" filter="url(#Shadow_2)">
            <path d="M 740 239.9003 L 821 239.9003 C 825.9706 239.9003 830 243.92974 830 248.9003 L 830 284.9003 C 830 289.87086 825.9706 293.9003 821 293.9003 L 740 293.9003 C 735.0294 293.9003 731 289.87086 731 284.9003 L 731 248.9003 C 731 243.92974 735.0294 239.9003 740 239.9003 Z" fill="url(#Obj_Gradient_13)"/>
            <path d="M 740 239.9003 L 821 239.9003 C 825.9706 239.9003 830 243.92974 830 248.9003 L 830 284.9003 C 830 289.87086 825.9706 293.9003 821 293.9003 L 740 293.9003 C 735.0294 293.9003 731 289.87086 731 284.9003 L 731 248.9003 C 731 243.92974 735.0294 239.9003 740 239.9003 Z" stroke="white" stroke-linecap="round" stroke-linejoin="round" stroke-width="3"/>
            <text transform="translate(736 252.9003)" fill="black">
              <tspan font-family="Helvetica" font-size="12" fill="black" x="26.163086" y="11">REDIS</tspan>
              <tspan font-family="Helvetica" font-size="12" fill="black" x="34.8291" y="25">API</tspan>
            </text>
          </g>
        </g>
      </g>
    </g>
  </g>
</svg>
